<?xml version="1.0" encoding="UTF-8"?>
<svg id="Layer_2" data-name="Layer 2" xmlns="http://www.w3.org/2000/svg" viewBox="0 0 809.82 77.44">
  <defs>
    <style>
      .cls-1 {
        fill: #004fff;
      }
      @media(prefers-color-scheme: dark) {
        .cls-1{
            fill: #dcff71;
        }
      }
    </style>
  </defs>
  <g id="Capa_1" data-name="Capa 1">
    <g>
      <g>
        <g>
          <g>
            <path class="cls-1" d="M12.96,24.49L0,61.98h12.17c1.4,0,2.66-.89,3.11-2.21l6.97-20.18c.49-1.43.23-3.01-.71-4.19l-8.6-10.9Z"/>
            <path class="cls-1" d="M54.76,15.46l-3.92,11.34c-.49,1.41-1.81,2.35-3.3,2.35h-9.17c-1.36,0-2.65-.62-3.49-1.69l-9.46-11.99h29.34Z"/>
          </g>
          <path class="cls-1" d="M13.23,0l-5.56,16.09c-.24.7-.13,1.47.3,2.07l4.99,6.33,2.3-6.66c.49-1.42,1.83-2.37,3.33-2.37h6.83L13.23,0Z"/>
        </g>
        <g>
          <g>
            <path class="cls-1" d="M68.02,52.95l12.96-37.49h-12.17c-1.4,0-2.66.89-3.11,2.21l-6.97,20.18c-.49,1.43-.23,3.01.71,4.19l8.6,10.9Z"/>
            <path class="cls-1" d="M26.22,61.98l3.92-11.34c.49-1.41,1.81-2.35,3.3-2.35h9.17c1.36,0,2.65.62,3.49,1.69l9.46,11.99h-29.34Z"/>
          </g>
          <path class="cls-1" d="M67.75,77.44l5.56-16.09c.24-.7.13-1.47-.3-2.07l-4.99-6.33-2.3,6.66c-.49,1.42-1.83,2.37-3.33,2.37h-6.83l12.2,15.46Z"/>
        </g>
      </g>
      <g>
        <path class="cls-1" d="M215.67,33.14c-1.92,0-3.73-.83-4.96-2.29l-13.05-15.27h14.64l14.99,17.55h-11.63Z"/>
        <path class="cls-1" d="M224.92,61.85v-9.4c0-6.05,2.16-11.92,6.1-16.52l17.39-20.35h15.15l-23.06,27c-1.96,2.28-3.04,5.2-3.04,8.21v11.06h-12.54Z"/>
        <path class="cls-1" d="M179.24,61.86v-18.52c0-1.23-1-2.22-2.22-2.22h-35.16c-1.23,0-2.22,1-2.22,2.22v18.52h-12.4V15.59h12.4v14.68c0,1.23,1,2.22,2.22,2.22h35.16c1.23,0,2.22-1,2.22-2.22v-14.68h12.4v46.27h-12.4Z"/>
        <path class="cls-1" d="M577.88,15.58l-19.79,46.27h-18.63l-11.45-32.08c-.06-.15-.15-.28-.24-.39-.28-.34-.69-.55-1.16-.55s-.89.2-1.16.55c-.09.1-.18.24-.24.39l-11.45,32.08h-18.63l-19.79-46.27h13.63l14.38,33.65c.22.6.77,1,1.42,1,.32,0,.61-.1.87-.27.06-.05.11-.08.17-.15.17-.15.3-.34.39-.58l12.01-33.65h16.81l12.01,33.65c.09.24.22.43.39.58.06.06.11.1.17.15.25.17.56.27.88.27.64,0,1.2-.4,1.41-1l14.38-33.65h13.63Z"/>
        <path class="cls-1" d="M269.59,61.85V15.59h51.19c7.28,0,13.21,5.93,13.21,13.21v2.65c0,7.29-5.93,13.21-13.21,13.21h-35.77c-1.67,0-3.02,1.35-3.02,3.02v14.17h-12.4ZM281.99,33.82c0,1.22,1,2.22,2.23,2.22h31.37c.98,0,1.96-.25,2.84-.71,1.74-.95,2.89-2.68,3.09-4.64v-.18c.02-.14.03-.27.03-.42,0-.12-.01-.25-.02-.38v-.15c-.22-1.96-1.37-3.69-3.1-4.64-.85-.46-1.84-.71-2.84-.71h-33.59v9.61Z"/>
        <path class="cls-1" d="M627.17,61.85l-2.45-6.18c-.44-1.16-1.58-1.93-2.82-1.93h-33.93c-1.24,0-2.38.78-2.82,1.94l-2.43,6.18h-13.59l19.73-46.27h32.15l19.77,46.27h-13.61ZM590.29,42.66c-.22.55-.15,1.18.18,1.67.33.49.89.79,1.48.79h25.97c.6,0,1.16-.29,1.49-.79.33-.49.4-1.12.18-1.67l-7.3-18.45h-14.7l-7.29,18.45Z"/>
        <path class="cls-1" d="M340.03,61.85V15.59h59.91v8.62h-47.51v7.47c0,1.23,1,2.23,2.23,2.23h45.28v8.62h-45.28c-1.23,0-2.23,1-2.23,2.22v7.75h47.51v9.36h-59.91Z"/>
        <path class="cls-1" d="M717.68,61.86V15.59h59.9v8.62h-47.5v7.47c0,1.23,1,2.22,2.22,2.22h45.28v8.62h-45.28c-1.23,0-2.22,1-2.22,2.22v7.75h47.5v9.36h-59.9Z"/>
        <path class="cls-1" d="M458.83,61.85l-12.38-13.97c-1.8-2.04-4.42-3.22-7.17-3.22h-16.48c-1.19,0-2.17.97-2.17,2.17v15.02h-12.4V15.59h52.16c6.99,0,12.67,5.68,12.67,12.67v1.16c0,3.38-1.32,6.56-3.7,8.96-2.4,2.4-5.58,3.71-8.97,3.71h-.4l-.09,4.59,12.47,15.17h-13.54ZM420.64,33.87c0,1.19.97,2.17,2.17,2.17h31.44c1.83,0,3.53-.82,4.67-2.25,1.12-1.4,1.53-3.22,1.12-4.99-.61-2.66-3.11-4.59-5.96-4.59h-33.44v9.66Z"/>
        <path class="cls-1" d="M697.41,61.85l-12.38-13.97c-1.8-2.04-4.42-3.22-7.17-3.22h-16.48c-1.19,0-2.17.97-2.17,2.17v15.02h-12.4V15.59h52.16c6.99,0,12.67,5.68,12.67,12.67v1.16c0,3.38-1.32,6.56-3.7,8.96-2.4,2.4-5.58,3.71-8.97,3.71h-.4l-.09,4.59,12.47,15.17h-13.54ZM659.21,33.87c0,1.19.97,2.17,2.17,2.17h31.44c1.83,0,3.53-.82,4.67-2.25,1.12-1.4,1.53-3.22,1.12-4.99-.61-2.66-3.11-4.59-5.96-4.59h-33.44v9.66Z"/>
        <g>
          <path class="cls-1" d="M803.64,16.88v-.65s.07,0,.09,0c.25-.03.49-.1.71-.2.11-.05.21-.11.31-.18.11-.07.2-.16.29-.25.4-.4.64-.95.65-1.55h0c0-.12,0-.22-.02-.33-.12-.83-.69-1.51-1.46-1.77,0,0-.01,0-.02,0-.22-.07-.46-.11-.7-.11h-8.32v7.6h2.13v-2.48c0-.16.13-.29.29-.29h2.65c.42,0,.83.18,1.11.5l2.02,2.28h2.35l-2.08-2.54ZM802.66,15.12h-5.07c-.16,0-.29-.13-.29-.29v-1.49h5.33c.42,0,.8.28.9.69.13.58-.31,1.09-.87,1.09Z"/>
          <path class="cls-1" d="M805.27,23.14h-9.98c-2.51,0-4.55-2.04-4.55-4.55v-6c0-2.51,2.04-4.55,4.55-4.55h9.98c2.51,0,4.55,2.04,4.55,4.55v6c0,2.51-2.04,4.55-4.55,4.55ZM795.28,10.23c-1.3,0-2.36,1.06-2.36,2.36v6c0,1.3,1.06,2.36,2.36,2.36h9.98c1.3,0,2.36-1.06,2.36-2.36v-6c0-1.3-1.06-2.36-2.36-2.36h-9.98Z"/>
        </g>
      </g>
    </g>
  </g>
</svg>
